<?xml version="1.0" encoding="UTF-8" standalone="no"?>
<!-- Created with Inkscape (http://www.inkscape.org/) -->

<svg
   width="84.512085mm"
   height="85.000008mm"
   viewBox="0 0 84.512085 85.000008"
   version="1.1"
   id="svg5"
   xml:space="preserve"
   inkscape:version="1.2.2 (b0a8486541, 2022-12-01)"
   sodipodi:docname="leaf.dxf"
   inkscape:dataloss="true"
   xmlns:inkscape="http://www.inkscape.org/namespaces/inkscape"
   xmlns:sodipodi="http://sodipodi.sourceforge.net/DTD/sodipodi-0.dtd"
   xmlns="http://www.w3.org/2000/svg"
   xmlns:svg="http://www.w3.org/2000/svg"><sodipodi:namedview
     id="namedview7"
     pagecolor="#ffffff"
     bordercolor="#000000"
     borderopacity="0.25"
     inkscape:showpageshadow="2"
     inkscape:pageopacity="0.0"
     inkscape:pagecheckerboard="0"
     inkscape:deskcolor="#d1d1d1"
     inkscape:document-units="mm"
     showgrid="false"
     inkscape:zoom="0.70393836"
     inkscape:cx="-2781.4936"
     inkscape:cy="-310.3965"
     inkscape:window-width="2190"
     inkscape:window-height="1435"
     inkscape:window-x="0"
     inkscape:window-y="0"
     inkscape:window-maximized="1"
     inkscape:current-layer="layer1" /><defs
     id="defs2" /><g
     inkscape:label="Layer 1"
     inkscape:groupmode="layer"
     id="layer1"
     transform="translate(712.56764,125.19013)"><g
       id="g15409"><path
         id="path7734"
         style="fill:none;stroke:#000000;stroke-width:0.589519;stroke-dasharray:none"
         inkscape:transform-center-x="3.861002"
         inkscape:transform-center-y="-0.15622448"
         d="m -636.62878,-57.520308 c -8.33785,11.315377 -17.41756,14.643137 -20.90755,10.056611 -5.99761,-7.882045 -9.04176,-28.54798 -10.31786,-28.069153 -1.19652,0.448964 6.38063,18.716869 5.01967,30.290397 -0.57992,4.931621 -10.09385,6.516929 -20.92295,2.410289 -12.54347,-4.756767 -19.30035,-15.504226 -15.10545,-19.982799 4.13566,-4.415332 23.01216,-14.351321 22.22193,-15.383347 -0.7827,-1.022207 -18.50524,12.554055 -26.53372,12.588357 -4.68097,0.02 -9.13667,-7.415684 -9.09788,-18.352112 0.0376,-10.591146 5.4946,-20.627425 9.04017,-20.374245 3.75084,0.26783 26.34255,18.588461 27.26798,17.444317 1.13457,-1.40273 -20.56419,-11.839138 -24.63361,-21.616807 -1.94794,-4.68032 5.23837,-10.61268 17.80219,-14.19103 11.82815,-3.36882 19.49041,-2.8639 21.2683,1.53877 4.01755,9.9488 -7.25405,31.613083 -5.85634,32.217623 1.5433,0.66752 5.76044,-23.499083 14.28521,-28.613883 3.69068,-2.21437 11.20723,2.73765 17.06422,10.67609 6.12721,8.304679 8.8068,16.508079 4.95857,18.899619 -10.60663,6.591672 -31.27443,4.085372 -31.29065,5.194306 -0.0215,1.467987 27.27156,-1.954869 32.6783,3.337844 3.34428,3.273754 0.1938,12.247098 -6.94053,21.929153 z"
         sodipodi:nodetypes="sssssssssssssssssssss" /><ellipse
         style="fill:none;fill-opacity:1;stroke:#000000;stroke-width:0.605129;stroke-dasharray:none;stroke-opacity:1"
         id="path7915"
         cx="-670.31152"
         cy="-82.690132"
         rx="3.4474356"
         ry="3.4474354" /></g><g
       id="g15413"
       transform="translate(45.996432,17.770035)"
       inkscape:export-filename="../Documents/coding/rose_optimization/shape_files/star.svg"
       inkscape:export-xdpi="96"
       inkscape:export-ydpi="96"><ellipse
         style="fill:none;fill-opacity:1;stroke:#000000;stroke-width:0.605129;stroke-dasharray:none;stroke-opacity:1"
         id="path7915-4"
         cx="-785.59998"
         cy="-40.496578"
         rx="3.4474356"
         ry="3.4474354" /><path
         sodipodi:type="star"
         style="fill:none;fill-opacity:1;stroke:#000000;stroke-width:0.496001;stroke-dasharray:none;stroke-opacity:1"
         id="path15349"
         inkscape:flatsided="false"
         sodipodi:sides="5"
         sodipodi:cx="-786.69434"
         sodipodi:cy="-41.571648"
         sodipodi:r1="37.057838"
         sodipodi:r2="7.8980641"
         sodipodi:arg1="-0.29151223"
         sodipodi:arg2="0.33271577"
         inkscape:rounded="0.09"
         inkscape:randomized="0"
         d="m -751.19995,-52.222107 c 0.81264,2.66855 -27.10759,10.597243 -28.02946,13.230054 -0.92322,2.636666 15.9228,26.286559 13.63263,27.886395 -2.28682,1.5974975 -18.45528,-22.506115 -21.24411,-22.569285 -2.79291,-0.06326 -20.07959,23.266475 -22.30882,21.582772 -2.22598,-1.681242 15.70159,-24.506787 14.89987,-27.17864 -0.80289,-2.675764 -28.33266,-11.907086 -27.42024,-14.547508 0.91109,-2.636562 28.1594,7.360088 30.45274,5.771962 2.2967,-1.59045 2.56904,-30.625459 5.36218,-30.573626 2.78906,0.05176 1.70188,29.055571 3.92095,30.745908 2.22233,1.692812 29.92042,-7.020488 30.73426,-4.348032 z"
         inkscape:transform-center-x="-0.26798303"
         inkscape:transform-center-y="-3.4008292"
         transform="matrix(1.0333186,0,0,1.0333186,27.381048,2.621235)" /></g></g></svg>
