<?xml version="1.0" encoding="UTF-8" standalone="no"?>
<!-- Created with Inkscape (http://www.inkscape.org/) -->

<svg
   width="27.604126mm"
   height="54.172897mm"
   viewBox="0 0 27.604126 54.172897"
   version="1.1"
   id="svg5"
   xml:space="preserve"
   inkscape:version="1.2.2 (b0a8486541, 2022-12-01)"
   sodipodi:docname="leaf.dxf"
   inkscape:dataloss="true"
   xmlns:inkscape="http://www.inkscape.org/namespaces/inkscape"
   xmlns:sodipodi="http://sodipodi.sourceforge.net/DTD/sodipodi-0.dtd"
   xmlns="http://www.w3.org/2000/svg"
   xmlns:svg="http://www.w3.org/2000/svg"><sodipodi:namedview
     id="namedview7"
     pagecolor="#ffffff"
     bordercolor="#000000"
     borderopacity="0.25"
     inkscape:showpageshadow="2"
     inkscape:pageopacity="0.0"
     inkscape:pagecheckerboard="0"
     inkscape:deskcolor="#d1d1d1"
     inkscape:document-units="mm"
     showgrid="false"
     inkscape:zoom="0.70393836"
     inkscape:cx="-2781.4936"
     inkscape:cy="-310.3965"
     inkscape:window-width="2190"
     inkscape:window-height="1435"
     inkscape:window-x="0"
     inkscape:window-y="0"
     inkscape:window-maximized="1"
     inkscape:current-layer="layer1" /><defs
     id="defs2" /><g
     inkscape:label="Layer 1"
     inkscape:groupmode="layer"
     id="layer1"
     transform="translate(604.75862,159.66134)"><path
       id="path13384"
       style="fill:none;fill-opacity:1;stroke:#000000;stroke-width:0.43576;stroke-dasharray:none;stroke-opacity:1"
       d="m -591.0578,-159.33895 c -0.69444,0.70969 -1.76572,1.96732 -1.76572,1.96732 0,0 0.047,-1.69784 -0.38972,-1.47491 -0.31541,0.16101 -0.7892,2.72363 -0.7892,2.72363 0,0 -0.0643,-1.70837 -0.43091,-1.40324 -0.48083,0.40016 -0.86005,3.17042 -0.86005,3.17042 0,0 0.0988,-1.53301 -0.31577,-1.36321 -0.60399,0.24741 -0.84145,3.03358 -0.84145,3.03358 0,0 -0.0926,-1.4281 -0.47963,-1.24266 -0.4538,0.21746 -1.09078,3.156 -1.09078,3.156 0,0 0.19627,-1.88569 -0.22188,-1.60569 -0.71935,0.48171 -1.07883,3.84945 -1.07883,3.84945 0,0 -0.19424,-1.32443 -0.55933,-1.13747 -0.50707,0.25967 -0.24136,2.86417 -0.24136,2.86417 0,0 -0.43145,-1.22853 -0.68645,-0.93875 -0.45159,0.51321 0.0267,3.15647 0.0267,3.15647 0,0 -0.63667,-1.25882 -0.84897,-0.90011 -0.31131,0.52595 0.17225,2.70126 0.17225,2.70126 0,0 -1.17021,-1.37811 -1.31441,-0.85776 -0.24005,0.86611 0.65367,3.74381 0.65367,3.74381 0,0 -1.15583,-0.88816 -1.2542,-0.43703 -0.19065,0.87424 0.94242,3.90438 0.94242,3.90438 0,0 -1.50462,-1.27671 -1.59699,-0.6809 -0.15014,0.96845 1.55403,3.82015 1.55403,3.82015 0,0 -2.04105,-1.64595 -2.06598,-0.86708 -0.0335,1.04535 2.29405,3.39567 2.29405,3.39567 0,0 -1.70321,-1.07537 -1.75464,-0.4454 -0.13385,1.63969 2.80115,4.15245 2.80115,4.15245 0,0 -2.25036,-1.92939 -2.2675,-1.06022 -0.0237,1.20822 1.76235,2.60551 2.34764,4.06682 2.70889,6.76333 6.84277,9.44095 6.84277,9.44095 l -0.0838,8.89877 3.40432,-0.027 3.40432,0.027 -0.0838,-8.89877 c 0,0 4.13387,-2.67762 6.84277,-9.44095 0.58529,-1.46131 2.37102,-2.8586 2.34719,-4.06682 -0.0173,-0.86917 -2.26748,1.06022 -2.26748,1.06022 0,0 2.93499,-2.51276 2.80114,-4.15245 -0.0514,-0.62997 -1.75464,0.4454 -1.75464,0.4454 0,0 2.32757,-2.35032 2.29406,-3.39567 -0.0248,-0.77887 -2.06599,0.86708 -2.06599,0.86708 0,0 1.70417,-2.8517 1.55402,-3.82015 -0.0923,-0.59581 -1.59697,0.6809 -1.59697,0.6809 0,0 1.13307,-3.03014 0.94241,-3.90438 -0.0984,-0.45113 -1.25418,0.43703 -1.25418,0.43703 0,0 0.89369,-2.8777 0.65366,-3.74381 -0.14419,-0.52035 -1.31399,0.85776 -1.31399,0.85776 0,0 0.48314,-2.17531 0.17184,-2.70126 -0.2123,-0.35871 -0.84898,0.90011 -0.84898,0.90011 0,0 0.47859,-2.64326 0.0271,-3.15647 -0.25499,-0.28978 -0.68689,0.93875 -0.68689,0.93875 0,0 0.26616,-2.6045 -0.24092,-2.86417 -0.36508,-0.18696 -0.55933,1.13747 -0.55933,1.13747 0,0 -0.27445,-3.29142 -0.9938,-3.77312 -0.41814,-0.28 -0.30736,1.52936 -0.30736,1.52936 0,0 -0.55151,-2.86221 -1.00531,-3.07966 -0.38702,-0.18544 -0.47963,1.24266 -0.47963,1.24266 0,0 -0.23744,-2.78619 -0.84144,-3.03358 -0.41458,-0.16981 -0.31577,1.36319 -0.31577,1.36319 0,0 -0.37922,-2.77026 -0.86004,-3.17041 -0.36664,-0.30512 -0.43092,1.40324 -0.43092,1.40324 0,0 -0.47379,-2.56263 -0.78919,-2.72363 -0.43674,-0.22292 -0.38972,1.47491 -0.38972,1.47491 0,0 -1.20442,-1.3709 -1.91407,-2.09251 -0.0216,-0.008 -0.0425,-0.0433 -0.046,-0.0468 0,0 0.008,-0.0247 -0.0934,0.0958 z"
       sodipodi:nodetypes="ccscscscscscscscscscscscscscsscccccsscscscscscscscscscscscscscscccc" /></g></svg>
