<?xml version="1.0" encoding="UTF-8" standalone="no"?>
<!-- Created with Inkscape (http://www.inkscape.org/) -->

<svg
   width="59.998077mm"
   height="60.000046mm"
   viewBox="0 0 59.998077 60.000046"
   version="1.1"
   id="svg5"
   xml:space="preserve"
   inkscape:version="1.2.2 (b0a8486541, 2022-12-01)"
   sodipodi:docname="leaf.dxf"
   inkscape:dataloss="true"
   xmlns:inkscape="http://www.inkscape.org/namespaces/inkscape"
   xmlns:sodipodi="http://sodipodi.sourceforge.net/DTD/sodipodi-0.dtd"
   xmlns="http://www.w3.org/2000/svg"
   xmlns:svg="http://www.w3.org/2000/svg"><sodipodi:namedview
     id="namedview7"
     pagecolor="#ffffff"
     bordercolor="#000000"
     borderopacity="0.25"
     inkscape:showpageshadow="2"
     inkscape:pageopacity="0.0"
     inkscape:pagecheckerboard="0"
     inkscape:deskcolor="#d1d1d1"
     inkscape:document-units="mm"
     showgrid="false"
     inkscape:zoom="0.70393836"
     inkscape:cx="-2781.4936"
     inkscape:cy="-310.3965"
     inkscape:window-width="2190"
     inkscape:window-height="1435"
     inkscape:window-x="0"
     inkscape:window-y="0"
     inkscape:window-maximized="1"
     inkscape:current-layer="layer1" /><defs
     id="defs2" /><g
     inkscape:label="Layer 1"
     inkscape:groupmode="layer"
     id="layer1"
     transform="translate(557.87428,145.34933)"><g
       id="g15339"
       transform="translate(45.897109,-54.796989)"
       inkscape:export-filename="../Documents/coding/rose_optimization/shape_files/medium_petal.svg"
       inkscape:export-xdpi="96"
       inkscape:export-ydpi="96"><path
         id="path7734-0"
         style="fill:none;stroke:#000000;stroke-width:0.520164;stroke-dasharray:none"
         inkscape:transform-center-x="3.4067676"
         inkscape:transform-center-y="-0.13784523"
         d="m -602.22266,24.42501 c -7.35693,9.984149 -15.36844,12.92041 -18.44784,8.873479 -5.29201,-6.95475 -7.69546,-24.8969707 -8.82143,-24.4744737 -1.05576,0.396141 5.3474,16.2224537 4.14656,26.4343917 -0.5117,4.35143 -8.90634,5.750231 -18.46143,2.126725 -11.06777,-4.197149 -17.02972,-13.680202 -13.32834,-17.631881 3.64912,-3.895879 20.2206,-12.3581577 19.52333,-13.2687727 -0.69061,-0.901941 -16.24389,10.7723407 -23.32785,10.8026057 -4.13026,0.01765 -8.06176,-6.543247 -8.02754,-16.1930372 0.0332,-9.3451318 4.84818,-18.2006718 7.97662,-17.9772778 3.30957,0.23632 23.23112,16.21237322 24.04767,15.2028291 1.0011,-1.2377028 -18.13256,-10.2570831 -21.72322,-18.8844381 -1.71877,-4.129693 4.62209,-9.364128 15.70781,-12.521496 10.4366,-2.972488 17.19742,-2.52697 18.76615,1.357738 3.54489,8.778353 -6.621,27.0224563 -5.38773,27.5558739 1.36174,0.5889882 5.30311,-19.8630449 12.82496,-24.3761029 3.25649,-1.953856 9.88873,2.415573 15.05667,9.420078 5.40636,7.327658 7.7707,14.5659519 4.37521,16.6761341 -9.3588,5.8161878 -27.23565,3.819675 -27.24996,4.7981425 -0.019,1.295285 23.7037,-1.9398131 28.47435,2.7302253 2.95084,2.888611 0.171,10.8062631 -6.12399,19.3492571 z"
         sodipodi:nodetypes="sssssssssssssssssssss" /><ellipse
         style="fill:none;fill-opacity:1;stroke:#000000;stroke-width:0.605129;stroke-dasharray:none;stroke-opacity:1"
         id="path7915-92"
         cx="-631.94275"
         cy="2.2163405"
         rx="3.4474356"
         ry="3.4474359" /></g><g
       id="g15331"
       transform="translate(24.345807,5.4268007)"><g
         id="g15347"><ellipse
           style="fill:none;fill-opacity:1;stroke:#000000;stroke-width:0.605129;stroke-dasharray:none;stroke-opacity:1"
           id="path7915-7"
           cx="-552.22107"
           cy="-120.77612"
           rx="3.4474356"
           ry="3.4474354" /><path
           id="path8017"
           style="fill:none;stroke:#000000;stroke-width:0.532602"
           inkscape:transform-center-x="-7.0045418e-06"
           d="m -552.96838,-91.04482 c -24.79219,-0.281876 -2.91761,-26.18735 -2.91761,-26.18735 0,0 -26.17828,21.595325 -26.06747,-4.29244 0.10186,-23.79523 26.27085,-2.86321 26.27085,-2.86321 0,0 -20.36969,-26.18975 4.20895,-26.12188 24.52459,0.0678 3.10197,26.39564 3.10197,26.39564 0,0 25.78109,-21.22491 25.88311,4.08415 0.0973,24.144097 -26.01175,3.1001 -26.01175,3.1001 0,0 21.27255,26.177649 -4.46805,25.88499 z"
           sodipodi:nodetypes="scscscscs"
           inkscape:transform-center-y="2.1929937e-06" /></g></g></g></svg>
